name Walk4.mot
datacolumns 19
datarows 25
range 1.75200000 1.77600000
endheader

                time	   L_ground_force_vx	   L_ground_force_vy	   L_ground_force_vz	   L_ground_force_px	   L_ground_force_py	   L_ground_force_pz	   R_ground_force_vx	   R_ground_force_vy	   R_ground_force_vz	   R_ground_force_px	   R_ground_force_py	   R_ground_force_pz	   L_ground_torque_x	   L_ground_torque_y	   L_ground_torque_z	   R_ground_torque_x	   R_ground_torque_y	   R_ground_torque_z	
          1.75200000	         -1.16321654	        696.63447031	         47.28469514	         -0.20326374	          0.00000000	         -0.09776153	         -0.04800651	          0.60934130	          0.02092263	          0.00014730	          0.00000000	          0.00004512	          0.00000000	          1.53364664	          0.00000000	          0.00000000	         -0.00276234	          0.00000000	
          1.75300000	         -0.73855890	        698.24329165	         47.28096301	         -0.20297045	          0.00000000	         -0.09772982	         -0.04860565	          0.61193237	          0.02122502	          0.00014160	          0.00000000	          0.00004241	          0.00000000	          1.54673232	          0.00000000	          0.00000000	         -0.00262627	          0.00000000	
          1.75400000	         -0.30451339	        699.85780397	         47.27603333	         -0.20268134	          0.00000000	         -0.09769680	         -0.04905973	          0.61223699	          0.02146785	          0.00013478	          0.00000000	          0.00003927	          0.00000000	          1.55949303	          0.00000000	          0.00000000	         -0.00246671	          0.00000000	
          1.75500000	          0.13896574	        701.47737878	         47.26989569	         -0.20239631	          0.00000000	         -0.09766249	         -0.04935339	          0.61004143	          0.02164459	          0.00012677	          0.00000000	          0.00003568	          0.00000000	          1.57193394	          0.00000000	          0.00000000	         -0.00228213	          0.00000000	
          1.75600000	          0.59192403	        703.10138203	         47.26254196	         -0.20211531	          0.00000000	         -0.09762691	         -0.04947052	          0.60512243	          0.02174836	          0.00011749	          0.00000000	          0.00003161	          0.00000000	          1.58406006	          0.00000000	          0.00000000	         -0.00207098	          0.00000000	
          1.75700000	          1.05440715	        704.72917675	         47.25396619	         -0.20183826	          0.00000000	         -0.09759009	         -0.04939423	          0.59724723	          0.02177195	          0.00010687	          0.00000000	          0.00002703	          0.00000000	          1.59587610	          0.00000000	          0.00000000	         -0.00183165	          0.00000000	
          1.75800000	          1.52646080	        706.36012543	         47.24416432	         -0.20156508	          0.00000000	         -0.09755204	         -0.04910684	          0.58617366	          0.02170782	          0.00009481	          0.00000000	          0.00002192	          0.00000000	          1.60738651	          0.00000000	          0.00000000	         -0.00156252	          0.00000000	
          1.75900000	          2.00813012	        707.99359145	         47.23313386	         -0.20129572	          0.00000000	         -0.09751279	         -0.04858995	          0.57165023	          0.02154808	          0.00008125	          0.00000000	          0.00001623	          0.00000000	          1.61859545	          0.00000000	          0.00000000	         -0.00126193	          0.00000000	
          1.76000000	          2.49945885	        709.62893923	         47.22087338	         -0.20103009	          0.00000000	         -0.09747236	         -0.04782436	          0.55341634	          0.02128451	          0.00006608	          0.00000000	          0.00000996	          0.00000000	          1.62950673	          0.00000000	          0.00000000	         -0.00092819	          0.00000000	
          1.76100000	          3.00048850	        711.26553292	         47.20738178	         -0.20076813	          0.00000000	         -0.09743078	         -0.04679011	          0.53120251	          0.02090853	          0.00004924	          0.00000000	          0.00000305	          0.00000000	          1.64012357	          0.00000000	          0.00000000	         -0.00055961	          0.00000000	
          1.76200000	          3.51125758	        712.90273462	         47.19265741	         -0.20050976	          0.00000000	         -0.09738809	         -0.04546651	          0.50473064	          0.02041127	          0.00003063	          0.00000000	         -0.00000450	          0.00000000	          1.65044848	          0.00000000	          0.00000000	         -0.00015446	          0.00000000	
          1.76300000	          4.03180093	        714.53990288	         47.17669737	         -0.20025492	          0.00000000	         -0.09734433	         -0.04383214	          0.47371438	          0.01978351	          0.00001016	          0.00000000	         -0.00001274	          0.00000000	          1.66048318	          0.00000000	          0.00000000	          0.00028897	          0.00000000	
          1.76400000	          4.56214905	        716.17639226	         47.15949725	         -0.20000353	          0.00000000	         -0.09729954	         -0.04186488	          0.43785953	          0.01901571	         -0.00001225	          0.00000000	         -0.00002170	          0.00000000	          1.67022870	          0.00000000	          0.00000000	          0.00077241	          0.00000000	
          1.76500000	          5.10232743	        717.81155383	         47.14105148	         -0.19975553	          0.00000000	         -0.09725376	         -0.03954192	          0.39686455	          0.01809802	         -0.00003670	          0.00000000	         -0.00003139	          0.00000000	          1.67968555	          0.00000000	          0.00000000	          0.00129759	          0.00000000	
          1.76600000	          5.65235608	        719.44473592	         47.12135372	         -0.19951084	          0.00000000	         -0.09720701	         -0.03683978	          0.35042110	          0.01702032	         -0.00006326	          0.00000000	         -0.00004186	          0.00000000	          1.68885376	          0.00000000	          0.00000000	          0.00186621	          0.00000000	
          1.76700000	          6.21224966	        721.07528452	         47.10039730	         -0.19926939	          0.00000000	         -0.09715935	         -0.03373441	          0.29821468	          0.01577217	         -0.00009203	          0.00000000	         -0.00005313	          0.00000000	          1.69773283	          0.00000000	          0.00000000	          0.00247996	          0.00000000	
          1.76800000	          6.78201812	        722.70254348	         47.07817522	         -0.19903112	          0.00000000	         -0.09711081	         -0.03020115	          0.23992538	          0.01434291	         -0.00012310	          0.00000000	         -0.00006522	          0.00000000	          1.70632141	          0.00000000	          0.00000000	          0.00314051	          0.00000000	
          1.76900000	          7.36166768	        724.32585454	         47.05467999	         -0.19879596	          0.00000000	         -0.09706140	         -0.02621483	          0.17522866	          0.01272160	         -0.00015654	          0.00000000	         -0.00007817	          0.00000000	          1.71461708	          0.00000000	          0.00000000	          0.00384946	          0.00000000	
          1.77000000	          7.95120199	        725.94455782	         47.02990319	         -0.19856385	          0.00000000	         -0.09701117	         -0.02174982	          0.10379633	          0.01089709	         -0.00019245	          0.00000000	         -0.00009200	          0.00000000	          1.72261618	          0.00000000	          0.00000000	          0.00460840	          0.00000000	
          1.77100000	          8.55062288	        727.55799243	         47.00383517	         -0.19833473	          0.00000000	         -0.09696015	         -0.01678007	          0.02529748	          0.00885803	         -0.00023089	          0.00000000	         -0.00010673	          0.00000000	          1.73031369	          0.00000000	          0.00000000	          0.00541882	          0.00000000	
          1.77200000	          9.15993070	        729.16549734	         46.97646468	         -0.19810852	          0.00000000	         -0.09690835	         -0.01127921	         -0.06060036	          0.00659291	         -0.00027196	          0.00000000	         -0.00012240	          0.00000000	          1.73770350	          0.00000000	          0.00000000	          0.00628218	          0.00000000	
          1.77300000	          9.77912392	        730.76641234	         46.94777872	         -0.19788518	          0.00000000	         -0.09685581	         -0.00522060	         -0.15422999	          0.00409007	         -0.00031572	          0.00000000	         -0.00013901	          0.00000000	          1.74477863	          0.00000000	          0.00000000	          0.00719982	          0.00000000	
          1.77400000	         10.40819825	        732.36007924	         46.91776241	         -0.19766464	          0.00000000	         -0.09680256	          0.00142256	         -0.25592320	          0.00133776	         -0.00036224	          0.00000000	         -0.00015659	          0.00000000	          1.75153171	          0.00000000	          0.00000000	          0.00817300	          0.00000000	
          1.77500000	         11.04714559	        733.94584318	         46.88639885	         -0.19744683	          0.00000000	         -0.09674861	          0.00867717	         -0.36600931	         -0.00167582	         -0.00041159	          0.00000000	         -0.00017516	          0.00000000	          1.75795535	          0.00000000	          0.00000000	          0.00920286	          0.00000000	
          1.77600000	         11.69595323	        735.52305345	         46.85366901	         -0.19723170	          0.00000000	         -0.09669399	          0.01657008	         -0.48481360	         -0.00496253	         -0.00046382	          0.00000000	         -0.00019473	          0.00000000	          1.76404226	          0.00000000	          0.00000000	          0.01029041	          0.00000000	
